# xmcd
#
# Track frame offsets: 
#        150
#        11341
#        29947
#        43791
#        57598
#        67938
#        80008
#        90613
#        103152
#        117692
#        132474
#        144253
#        160199
#        175352
#
# Disc length: 2563 seconds
#
# Revision: 0
# Processed by: cddbd v1.5.2PL0 Copyright (c) Steve Scherf et al.
# Submitted via: ExactAudioCopy v0.95b4
#
DISCID=cb0a010e
DTITLE=Золотое кольцо - Зажигаем вновь
DYEAR=2008
DGENRE=Chanson
TTITLE0=Давай мы будем счастливы
TTITLE1=Ворожи не ворожи
TTITLE2=Снег летит
TTITLE3=Дурман трава
TTITLE4=По полю по чистому
TTITLE5=Пока мы счастливы
TTITLE6=Ты словно дождь
TTITLE7=Не проси
TTITLE8=По ту сторону тумана
TTITLE9=По московскому времени
TTITLE10=Сопилочка
TTITLE11=Ты войдешь в круг
TTITLE12=Пролетело лето
TTITLE13=Зажигаем вновь
EXTD=
EXTT0=
EXTT1=
EXTT2=
EXTT3=
EXTT4=
EXTT5=
EXTT6=
EXTT7=
EXTT8=
EXTT9=
EXTT10=
EXTT11=
EXTT12=
EXTT13=
PLAYORDER=
